<?xml version="1.0" encoding="UTF-8" standalone="no"?>
<!-- Created with Inkscape (http://www.inkscape.org/) -->

<svg
   xmlns:dc="http://purl.org/dc/elements/1.1/"
   xmlns:cc="http://creativecommons.org/ns#"
   xmlns:rdf="http://www.w3.org/1999/02/22-rdf-syntax-ns#"
   xmlns:svg="http://www.w3.org/2000/svg"
   xmlns="http://www.w3.org/2000/svg"
   xmlns:sodipodi="http://sodipodi.sourceforge.net/DTD/sodipodi-0.dtd"
   xmlns:inkscape="http://www.inkscape.org/namespaces/inkscape"
   width="290.94852mm"
   height="101.33541mm"
   viewBox="0 0 1030.92 359.06248"
   id="svg4793"
   version="1.1"
   inkscape:version="0.91 r13725"
   sodipodi:docname="AVX Corporation Logo.svg">
  <defs
     id="defs4795" />
  <sodipodi:namedview
     id="base"
     pagecolor="#ffffff"
     bordercolor="#666666"
     borderopacity="1.0"
     inkscape:pageopacity="0.0"
     inkscape:pageshadow="2"
     inkscape:zoom="0.35"
     inkscape:cx="781.42111"
     inkscape:cy="353.65455"
     inkscape:document-units="px"
     inkscape:current-layer="layer1"
     showgrid="false"
     fit-margin-top="0"
     fit-margin-left="0"
     fit-margin-bottom="0"
     fit-margin-right="0"
     inkscape:window-width="1680"
     inkscape:window-height="987"
     inkscape:window-x="-8"
     inkscape:window-y="22"
     inkscape:window-maximized="1" />
  <metadata
     id="metadata4798">
    <rdf:RDF>
      <cc:Work
         rdf:about="">
        <dc:format>image/svg+xml</dc:format>
        <dc:type
           rdf:resource="http://purl.org/dc/dcmitype/StillImage" />
        <dc:title></dc:title>
      </cc:Work>
    </rdf:RDF>
  </metadata>
  <g
     inkscape:label="Layer 1"
     inkscape:groupmode="layer"
     id="layer1"
     transform="translate(1361.375,-807.66992)">
    <path
       style="fill:#00aeef;fill-opacity:1"
       d="m -620.78711,807.66992 -47.83008,0.5332 -144.78711,358.19918 64.78516,0.3008 0.49805,-1.25 103.57617,-256.74412 31.41211,78.40625 -71.99414,178.33787 -0.49219,1.25 64.89258,0 1.2539,-2.75 71.14649,-177.33005 -72.46094,-178.95313 z m -466.85159,0.0332 143.44534,358.99998 64.78906,-0.4746 -144.8984,-358.52538 -63.336,0 z m 133.01956,0 106.67969,265.91988 0.65429,-1.2109 105.88086,-264.16796 0,-0.54102 -62.92968,0 -0.93555,1.75 -42.86524,103.37891 -42.63867,-105.12891 -63.8457,0 z m 484.42773,0 -72.21289,0.29493 35.96485,87.70507 36.24804,-88 z m 136,0 -63.71289,0.004 -70.5,175.66406 73.02539,183.33202 64.92383,0 -74.10351,-183.49999 70.36718,-175.5 z m -172.15429,270.99998 -35.78516,86.75 -0.48828,1.25 72.18555,0 -35.91211,-88 z"
       id="path5454"
       inkscape:connector-curvature="0" />
    <path
       style="fill:#000000"
       d="m -1216.1641,807.70312 -145.2109,358.99998 65.7559,0 0.5097,-1.25 143.209,-356.75779 0.6133,-0.99219 -64.877,0 z m 95.2852,89.19336 -1.1641,1.41407 -31.08,77.14257 -0.4961,1.25 65.2148,-0.39062 -32.4746,-79.41602 z m -62.4473,153.79302 -47.2929,116.0136 65.8964,0 22.5938,-56 42.5215,0 22.0625,54.7754 0.7754,1.2539 65.2402,-0.5293 -46.5527,-115 -125.2442,-0.5136 z"
       id="path5450"
       inkscape:connector-curvature="0" />
  </g>
</svg>
